<svg id="Capa_1" data-name="Capa 1" xmlns="http://www.w3.org/2000/svg" viewBox="0 0 410.9 600.35"><defs><style>.cls-1{fill:#fff;}</style></defs><title>iconos_habilidades</title><path class="cls-1" d="M17.81,166c-20.19-37-2.69-78.17,30.27-91.83,8-3.3,11.36-6.91,13.14-15.75,7.88-39.1,46.48-60.69,84.29-48.39a13.07,13.07,0,0,0,6.6-.07c6.61-1.49,13.08-4.31,19.74-4.8,19.78-1.44,35.41,13.59,35.42,33.44q0,189.24,0,378.49c0,8.13-3.74,12-11.86,12-15.31-.13-30.72.52-45.91-1-18.22-1.8-32.06-18.61-32.26-36.93-.11-9.67.13-19.34-.13-29a25,25,0,0,0-2-9.1c-2-4.72-5.35-7.1-11.26-6.85-37,1.57-66.07-24.94-68.31-62-.3-4.92,1.84-10.68-.09-14.6-1.85-3.74-7.81-5.27-11.51-8.32-28-23.09-31.95-63.39-9-91.53C15.86,168.62,16.74,167.43,17.81,166Zm13.28,16.21a43.4,43.4,0,0,0-10.82,27.16c-1,31.89,29.58,54,60.36,43.64,7-2.35,12.52-.34,14.55,5.31,2.16,6-.77,11.28-7.82,13.78a65.13,65.13,0,0,1-31,3.48C54.56,289.9,58.33,302.18,68,312.16c12.51,12.87,27.86,17.43,45.18,12.16,18.29-5.57,28.59-18.57,31.9-37.26,1.13-6.42,5.57-10,11.37-9.17s10,5.6,8.49,11.83a121.75,121.75,0,0,1-8.49,24.79c-5.4,11-14.74,18.67-25.83,24.93,7.06,9.64,7,20.44,6.72,31.31q-.23,9.5,0,19c.23,9.19,5.9,17.57,14,18.2,11.7.9,23.52.23,35.55.23.07-1.44.2-2.9.2-4.37q0-144.48,0-289a17.62,17.62,0,0,0-1.35-6.73c-9-21-32.34-31.45-54.77-24.66-7.5,2.28-12.91.17-14.74-5.74-1.93-6.24,1.26-11.28,8.88-13.57q31.15-9.36,57.89,9.29c1.16.8,2.38,1.52,4.12,2.63,0-13.36.3-26-.11-38.6-.28-8.52-8.72-14-17.25-11.81-4.17,1.09-8.6,2-12.24,4.15-5.89,3.47-11,2.49-17,.22-16.41-6.2-31.95-3.8-45.24,7.78-13.73,12-18.36,27.3-14.1,45.11,2.12,8.84,7,16,13.55,22.27,4.51,4.27,4.77,10,1,14.26-4,4.49-9.64,4.78-14.63.57a26.67,26.67,0,0,1-5.27-5.29C70.79,107,65.94,99.16,60.82,91.06c-22.07,5.09-36.43,31-29.57,54.92,6.8,23.66,33.4,38.23,55.47,30.17,1.38-.5,2.78-3,2.86-4.69.5-10.3,2.72-20.1,7.65-29.18,3-5.59,8.75-7.4,14-4.65a10,10,0,0,1,4,13.8c-11.84,22.1-3,49.55,18,60.95,2.26,1.23,4.09,4.39,4.83,7,1.1,3.93-.45,7.55-4,10-3.91,2.63-7.78,2.24-11.73,0-13.48-7.79-22.8-19.15-28.66-33.69C70.55,201.85,49.74,197.74,31.09,182.25Z"/><path class="cls-1" d="M227.39,214.26q0-100.71,0-201.43c0-10,3.83-13.7,13.8-12.66,78.22,8.09,144.84,61.26,164,139.4,19.32,78.92-11.09,158.61-77.7,205.28-6.73,4.73-10.05,10.73-9.9,18.92.16,8.66.18,17.33,0,26-.5,23.18-17,39.29-40.09,39.36q-18.24.06-36.49,0c-10.07,0-13.59-3.51-13.59-13.43Q227.4,315,227.39,214.26ZM248.21,21.52V408.43c11.45,0,22.44.54,33.36-.16,9.25-.6,15.55-8.3,15.7-17.63.14-8.67.22-17.34,0-26-.36-15.78,6.28-27.43,19-36.79,54.64-40.2,79.79-94.33,72.83-161.93-5.22-50.67-30.63-90-72.86-118.33C295.72,33.81,273,25.44,248.21,21.52Z"/><path class="cls-1" d="M317.2,466.3c0,3.69-.19,7.34.1,10.95a5.22,5.22,0,0,0,2.32,3.17c7.31,4.88,7.34,13,.17,18A6.92,6.92,0,0,0,317.3,503c-.46,5.16-.71,9.77,4.94,13.56,5.24,3.51,3.46,11.31-2.07,15.34-1.34,1-2.77,2.82-2.87,4.35-1.18,18.07-14.05,30.47-32.26,30.67-8.8.1-17.6,0-26.67,0-.35,4.34-.44,8.29-1,12.18a24.71,24.71,0,0,1-24.56,21.21q-15.25.11-30.5,0a24.92,24.92,0,0,1-25.12-25c0-2.62,0-5.23,0-8.45-9.55,0-18.5.1-27.45,0-15.24-.2-26.84-8.88-30.83-23a24.31,24.31,0,0,1-.79-4.4c-.33-3.45-.63-6.14-4.73-8.15-6.93-3.39-6.54-13.7.64-16.92,5.51-2.46,3.08-6.52,3.6-10,.42-2.77,0-4.9-3.41-6.1a8,8,0,0,1-5.45-9.13c.69-3.18,3-7,5.72-8.54,6-3.35,2.09-8.34,2.9-12.43.12-.64-3.19-2.51-5.1-2.92-14-3-25.76-18.74-24.59-33.06a10.37,10.37,0,0,1,9.63-9.8c4.83-.33,9.15,3.09,10.39,8.31a28.3,28.3,0,0,1,.45,3.45c.77,7.32,5,11.37,12.43,11.61,3.17.1,6.34,0,9.5,0h181c11.45,0,14.63-2.85,16.07-14.3a10.11,10.11,0,0,1,10.16-9.1,10.45,10.45,0,0,1,9.92,10c.93,15.44-10.95,30.34-26.27,33C319.81,465.57,318.71,465.92,317.2,466.3ZM138.61,533.23c-1,8.24,2.93,13.1,10.62,13.16,16.83.13,33.65.05,50.48.05q42.47,0,85,0c8.49,0,12.77-4.67,11.9-12.68a2.66,2.66,0,0,0-.89-.39c-5.16-.06-10.32-.09-15.49-.13-7.87-.06-12.1-3.53-12.18-10s4.12-10.08,11.95-10.1c5.58,0,11.16,0,17.09,0,0-3.67-.16-6.5,0-9.29.25-3.21-.84-4.53-4.2-4.38a137.13,137.13,0,0,1-14.48-.07,13.79,13.79,0,0,1-6.48-2c-4-2.6-4.77-6.83-3.51-11.08,1.36-4.65,5-6.91,9.83-7,6.1-.11,12.21,0,18.43,0V466.38H138.42v12.9c4.75,0,9.21,0,13.67,0,7.24.08,11.54,4,11.48,10.29-.07,6.1-4.23,9.8-11.26,9.9-4.61.06-9.22,0-13.75,0v13.23A8.55,8.55,0,0,0,140,513c4.17,0,8.33,0,12.5.06,6.9.08,11.11,3.88,11.13,10s-4.24,10-11.14,10.11C147.81,533.28,143.18,533.23,138.61,533.23Zm58.89,34c-.09,1.4-.2,2.53-.22,3.65-.15,8.26.88,9.34,9,9.34s16.29-.08,24.44,0c4.51,0,6.91-1.79,6.75-6.49-.07-2.11,0-4.22,0-6.52Z"/><path class="cls-1" d="M354.39,170c.53,6.75-1.2,10.38-5.95,12.34s-8.67.77-11.58-3a14.2,14.2,0,0,1-2.49-6.85c-3.53-32.83-19.23-58.15-46.47-76.64a17.82,17.82,0,0,1-6.41-8.24c-1.35-3.83.65-7.58,4.19-9.85,3.86-2.48,7.86-2.17,11.73.26a124.45,124.45,0,0,1,35.39,33.31C344.9,128.16,352.83,149.73,354.39,170Z"/><path class="cls-1" d="M308.32,256.29c1.12-2.32,1.88-4.92,3.43-6.91a112.24,112.24,0,0,0,17.47-32.25c2.24-6.42,7.52-9.19,13.18-7.15s8,7.36,5.9,13.81a126,126,0,0,1-21.08,38.74,9.94,9.94,0,0,1-12.06,3.4C311.13,264.42,308.83,261.19,308.32,256.29Z"/><path class="cls-1" d="M215.58,533.23c-5.82,0-11.64.06-17.45,0-6.63-.09-11-4.29-10.93-10.31s4.2-9.75,10.8-9.78q17.69-.09,35.39,0c6.67,0,10.75,3.73,10.88,9.66.14,6.14-4.11,10.27-10.74,10.45H215.58Z"/><path class="cls-1" d="M215.42,499.46c-6,0-12,.11-17.95,0-6.22-.14-10.19-4.05-10.28-9.82s4.26-10.21,10.47-10.28c12.13-.12,24.27-.14,36.4,0,6.24.08,10.36,4.51,10.22,10.45-.14,5.73-4.1,9.51-10.41,9.64C227.72,499.55,221.57,499.46,215.42,499.46Z"/></svg>