<svg id="Layer_1" data-name="Layer 1" xmlns="http://www.w3.org/2000/svg" viewBox="0 0 68.24 68.24"><defs><style>.cls-1{fill:#fff;}</style></defs><title>iconosMenu</title><path class="cls-1" d="M14.2,25.08l2.69,1.71,12.79,8.09,1.22.77a.36.36,0,0,1,.2.35c0,1.14,0,2.27,0,3.41,0,.52.23.74.75.74h4.67c.51,0,.73-.22.73-.73,0-1.13,0-2.25,0-3.38a.4.4,0,0,1,.21-.39l16.38-9.93.2-.1V26Q54,38.1,54,50.2a1.24,1.24,0,0,1-1.33,1.34q-12.24,0-24.46,0H15.49a1.14,1.14,0,0,1-1.25-.84,1.2,1.2,0,0,1,0-.38V25.08Z"/><path class="cls-1" d="M25.52,22.05v-.32c0-1,0-2.05,0-3.07A1.88,1.88,0,0,1,27,16.75a2.41,2.41,0,0,1,.54-.05H40.77a1.88,1.88,0,0,1,1.94,1.94v3.41h10a1.12,1.12,0,0,1,1.24.86,3.36,3.36,0,0,1,0,.84c0,.07-.1.14-.17.19L40.44,32.07c-2,1.21-4,2.41-6,3.63a.56.56,0,0,1-.68,0L14.39,23.41a.35.35,0,0,1-.19-.4,1.13,1.13,0,0,1,.87-.92,2.69,2.69,0,0,1,.49,0h10Zm1.53,0H41.19V18.77c0-.46-.11-.56-.56-.56H27.58c-.42,0-.54.11-.54.53v3.05C27,21.87,27.05,22,27.05,22Z"/></svg>