<svg id="Layer_1" data-name="Layer 1" xmlns="http://www.w3.org/2000/svg" viewBox="0 0 29.3 28.31"><defs><style>.cls-1{fill:#fff;}</style></defs><title>iconos_redes</title><path class="cls-1" d="M11,24.89c0,.88,0,1.78,0,2.67,0,.53-.49.79-1.07.59a13.86,13.86,0,0,1-4.24-2.26A14.06,14.06,0,0,1,.25,16.6,14.41,14.41,0,0,1,10.77.59a14.59,14.59,0,0,1,17.75,9.56,14.41,14.41,0,0,1-9.11,18c-.72.24-1.14-.06-1.14-.82,0-1.08,0-2.17,0-3.25a4.17,4.17,0,0,0-1-3.18c.54-.1,1-.17,1.53-.28a6.13,6.13,0,0,0,3.91-2.39,6.53,6.53,0,0,0,1.1-3.3,12.1,12.1,0,0,0,0-2.17,5,5,0,0,0-1.22-2.66.47.47,0,0,1-.1-.49,5.07,5.07,0,0,0-.17-3.35A.47.47,0,0,0,22,6a4.26,4.26,0,0,0-1.95.51c-.53.26-1,.58-1.54.85a.77.77,0,0,1-.44.08,14.13,14.13,0,0,0-6.84,0,.68.68,0,0,1-.46-.1,8.81,8.81,0,0,0-3-1.32,2.4,2.4,0,0,1-.28,0c-.33,0-.49.08-.59.41a5.57,5.57,0,0,0-.07,3.26.42.42,0,0,1-.06.33,6.2,6.2,0,0,0-1.28,5.16,6.56,6.56,0,0,0,1.28,3.31,6.26,6.26,0,0,0,3.65,2.12c.51.12,1,.19,1.57.29a3.45,3.45,0,0,0-.87,1.8c0,.07-.13.15-.21.19a3,3,0,0,1-4-1.24A3,3,0,0,0,4.9,20.17a1.73,1.73,0,0,0-.68,0c-.32.06-.36.24-.13.48a1.58,1.58,0,0,0,.34.29,3.94,3.94,0,0,1,1.6,2,3.18,3.18,0,0,0,3,2A19.77,19.77,0,0,0,11,24.89Z"/><path class="cls-1" d="M7.24,22.49a3.52,3.52,0,0,1,.33.45s-.15.17-.17.16a1.28,1.28,0,0,1-.32-.29S7.15,22.67,7.24,22.49Z"/><path class="cls-1" d="M8.33,23.74,8,23.4c.09,0,.2-.17.26-.15a2.06,2.06,0,0,1,.33.27Z"/><path class="cls-1" d="M10.68,23.2l.25.29c-.11.07-.22.19-.34.21s-.17-.12-.26-.19Z"/><path class="cls-1" d="M9.5,23.35l.32.28c-.1.07-.2.2-.31.2s-.19-.13-.29-.2Z"/><path class="cls-1" d="M6.91,22.12c-.13.08-.24.17-.26.15a1.48,1.48,0,0,1-.26-.3s.16-.18.17-.17A4.29,4.29,0,0,1,6.91,22.12Z"/><path class="cls-1" d="M6.32,21.33c-.13.06-.22.14-.25.12a1.14,1.14,0,0,1-.24-.25s.12-.15.13-.14A2.55,2.55,0,0,1,6.32,21.33Z"/></svg>