<svg id="Capa_1" data-name="Capa 1" xmlns="http://www.w3.org/2000/svg" viewBox="0 0 315.58 315.49"><defs><style>.cls-1{fill:#fff;}</style></defs><title>iconos_habilidades</title><path class="cls-1" d="M0,157.62C0,70.74,71-.11,158,0A157.78,157.78,0,0,1,315.58,157.89c0,87.1-70.94,157.65-158.43,157.6C70.65,315.45,0,244.45,0,157.62ZM157.82,10.79c-80.54,0-146.93,65.85-147,145.85-.08,81.73,65.4,148,146.23,148.08,81.3,0,147.76-65.67,147.75-146.1C304.77,76.61,239.35,10.8,157.82,10.79Z"/><path class="cls-1" d="M294.89,157.51c-.17,75.92-61.2,136.41-137.47,136.25C82.28,293.6,21.63,232,21.87,156c.24-75,62-135.43,138.07-135.24C234.42,21,295.06,82.41,294.89,157.51Zm-10.69.05C285.06,89.71,229,32.74,161.14,31.43,91.29,30.09,34.4,86.23,32.63,153.69,30.75,224.81,88,282,155.49,282.94,227,283.88,283.29,229,284.2,157.56Z"/><path class="cls-1" d="M216,175.18c-12.32,0-24.65.11-37-.06-4.58-.06-6.21,1.86-6.15,6.29.16,10.32.09,20.65,0,31,0,10.64-7.13,18.21-17,18.26s-17.11-7.55-17.18-18.08q-.12-18.48,0-37c.06-7.12-1.87-13-7.33-18.15-14.21-13.56-27.92-27.66-41.78-41.59-5-5-6.87-10.94-4.77-17.83,2-6.47,6.5-10.4,13-11.77s11.75.84,16.3,5.4c15.29,15.33,30.66,30.57,45.88,46a9.91,9.91,0,0,0,7.81,3.27q42.47-.18,84.94,0a17,17,0,0,1,17,14.08c1.3,8.58-3,16.38-10.95,19.08a26.79,26.79,0,0,1-8.34,1.1c-11.49.12-23,0-34.48,0Zm-35.51-10.86c1,.07,1.94.19,2.91.19q33.69,0,67.38,0c5.44,0,8.39-2.27,8.51-6.31.12-4.2-2.95-6.57-8.67-6.58q-27.94,0-55.9,0H178.21C179,155.91,179.66,159.79,180.46,164.32Zm-31.38-22.63c-14.51-14.47-28.81-28.81-43.23-43-2.93-2.88-6.4-2.88-9.27.17-2.71,2.88-2.42,6.07.29,8.89,3.46,3.59,7,7.08,10.53,10.62l31.82,32.16Zm13.11,42-12.65-1.48c0,10.72-.17,21.35.09,32,.09,3.59,2.65,5.77,6.38,5.61,4-.17,6.09-2.64,6.14-6.5C162.27,203.46,162.19,193.65,162.19,183.66Zm6.92-22.06a10.69,10.69,0,1,0-10.61,11A11,11,0,0,0,169.11,161.6Z"/><path class="cls-1" d="M54.57,162.61c-3.48,0-7,0-10.43,0-3.65,0-6.25-1.62-6.19-5.52,0-3.59,2.44-5.22,5.93-5.23,7.29,0,14.58-.06,21.87,0,3.42,0,5.92,1.57,6,5.23,0,3.89-2.52,5.51-6.19,5.54S58.22,162.61,54.57,162.61Z"/><path class="cls-1" d="M110.8,231.65c4.85-.06,7.63,3.55,5.77,7.22A204.31,204.31,0,0,1,104.31,260c-1,1.43-5.24,2.17-6.78,1.24s-2.67-5-1.86-6.61c3.51-7.15,7.69-14,11.87-20.78C108.29,232.62,110.13,232.08,110.8,231.65Z"/><path class="cls-1" d="M117.12,78.82c-.82.86-2,3.1-3.61,3.52s-4.84-.21-5.65-1.48A248.3,248.3,0,0,1,95.27,58.92c-.66-1.32.73-4.8,2.17-5.74s5.39-.72,6.09.37c4.79,7.49,9,15.35,13.41,23.1A10.39,10.39,0,0,1,117.12,78.82Z"/><path class="cls-1" d="M198.09,78.51a26.6,26.6,0,0,1,1.36-4.09c3.67-6.48,7.34-13,11.16-19.35,1.77-3,4.47-4.08,7.59-2.12,2.81,1.77,3.35,4.44,1.7,7.34-3.76,6.62-7.36,13.35-11.56,19.69-1,1.56-4.17,2.52-6.22,2.34C200.62,82.19,199.32,79.75,198.09,78.51Z"/><path class="cls-1" d="M57.48,93.69c2.18,1,3.6,1.45,4.88,2.18,5.76,3.28,11.46,6.66,17.21,9.95,3.29,1.88,5.28,4.39,3.09,8.08-2,3.37-5,3.25-8.18,1.41-6.15-3.59-12.52-6.85-18.4-10.82-1.73-1.17-3-4.34-2.87-6.5C53.3,96.44,56,95,57.48,93.69Z"/><path class="cls-1" d="M262.78,100.85c-.5.66-1.28,2.48-2.64,3.31-6.49,4-13.14,7.71-19.75,11.5-2.9,1.67-5.63,1.18-7.38-1.58-1.91-3-1-5.81,2-7.62,6.55-3.89,13.07-7.85,19.8-11.41C259,92.87,263,95.48,262.78,100.85Z"/><path class="cls-1" d="M57.15,220.22c-1-.79-3.42-1.83-3.81-3.38-.47-1.85.16-5.19,1.5-6.07a218.05,218.05,0,0,1,21.5-12.34c1.43-.71,5,.68,6.12,2.18,1,1.25.56,5.31-.58,6-7.34,4.73-15,8.89-22.65,13.22A10.28,10.28,0,0,1,57.15,220.22Z"/><path class="cls-1" d="M258.08,220.6c-2.12-.91-3.54-1.36-4.82-2.09-5.79-3.28-11.54-6.64-17.31-10-3.08-1.77-5-4.16-3.14-7.75,2-3.83,5.18-3.53,8.5-1.59,6.19,3.59,12.6,6.87,18.49,10.9,1.67,1.13,2.62,4.43,2.5,6.66C262.23,218.14,259.52,219.37,258.08,220.6Z"/><path class="cls-1" d="M205.13,231.66c.7.57,2.58,1.5,3.51,3,3.85,6.23,7.4,12.64,11.06,19,1.76,3,1.59,6-1.5,7.82-3.31,2-6.08.59-7.94-2.61-3.59-6.19-7.25-12.35-10.66-18.64C197.16,235.71,199.36,231.56,205.13,231.66Z"/><path class="cls-1" d="M163,53.63c0,3.83.07,7.65,0,11.48-.09,3.31-1.88,5.45-5.25,5.41s-5.17-2.15-5.19-5.49c-.06-7.65,0-15.31,0-23,0-3.39,1.84-5.31,5.25-5.32s5.11,2.08,5.18,5.4C163.1,46,163,49.8,163,53.63Z"/><path class="cls-1" d="M163.05,260.86c0,3.82.09,7.65,0,11.47-.1,3.32-1.87,5.38-5.28,5.35s-5.16-2.11-5.19-5.44c-.06-7.65-.07-15.3,0-23,0-3.33,1.9-5.39,5.27-5.38s5.09,2.18,5.18,5.47C163.13,253.2,163.05,257,163.05,260.86Z"/></svg>