<svg id="Layer_1" data-name="Layer 1" xmlns="http://www.w3.org/2000/svg" viewBox="0 0 28.28 28.34"><defs><style>.cls-1{fill:#fff;}</style></defs><title>iconos_redes</title><path class="cls-1" d="M0,28.28c.78-2.3,1.51-4.35,2.14-6.44a2.71,2.71,0,0,0-.11-1.71C-.41,14.87,0,9.84,3.58,5.29a13.07,13.07,0,0,1,14-4.78C23.29,1.86,26.81,5.64,28,11.38a13.67,13.67,0,0,1-14.3,16.09,37.78,37.78,0,0,1-5.44-1.32,3,3,0,0,0-1.4,0C4.64,26.78,2.46,27.51,0,28.28Zm3.46-3.39C4.85,24.46,6,24,7.18,23.75a2.31,2.31,0,0,1,1.47.16c4.3,2.18,8.52,2.09,12.44-.7A10.82,10.82,0,0,0,25.76,11.6a11,11,0,0,0-8.38-8.91A11,11,0,0,0,5.74,6.13C2.58,9.6,1.68,13.81,3.65,18a6.78,6.78,0,0,1,.07,6.21C3.66,24.37,3.62,24.51,3.49,24.89Z"/><path class="cls-1" d="M7.57,10.82c.08-1.93,1.18-3.34,2.6-3.26a1.33,1.33,0,0,1,.45.05c.86.33,1.8,3.59,1.14,4.25a1.26,1.26,0,0,0,0,2.06q1.65,1.5,3.42,2.86a1.14,1.14,0,0,0,1.9-.42,1.29,1.29,0,0,1,2.15-.48,7.09,7.09,0,0,0,1,.49,1.59,1.59,0,0,1,.46,2.8,3.51,3.51,0,0,1-3.38,1A13.52,13.52,0,0,1,8.1,12.68,9.48,9.48,0,0,1,7.57,10.82Z"/></svg>