<svg id="Layer_1" data-name="Layer 1" xmlns="http://www.w3.org/2000/svg" viewBox="0 0 28.31 28.35"><defs><style>.cls-1{fill:#fff;}</style></defs><title>iconos_redes</title><path class="cls-1" d="M15.75,11.93a8.46,8.46,0,0,1,10.15-1.4,4.94,4.94,0,0,1,2.32,4c.15,4.56.05,9.12.05,13.78H22.85c0-2.34,0-4.64,0-6.94,0-1.41,0-2.83-.19-4.23-.23-2-1.26-3-3.09-3a3.08,3.08,0,0,0-3.42,3,26.72,26.72,0,0,0-.13,3c0,2.68,0,5.37,0,8.16H10.55V9.51h5.2Z"/><path class="cls-1" d="M.07,28.35V9.5H6.55V28.35Z"/><path class="cls-1" d="M6.63,3.35A3.28,3.28,0,0,1,3.25,6.58,3.32,3.32,0,0,1,0,3.21,3.28,3.28,0,0,1,3.39,0,3.24,3.24,0,0,1,6.63,3.35Z"/></svg>