<svg id="Layer_1" data-name="Layer 1" xmlns="http://www.w3.org/2000/svg" viewBox="0 0 68.24 68.24"><defs><style>.cls-1{fill:#fff;}</style></defs><title>iconosMenu</title><path class="cls-1" d="M30,18.92h7.75c.11,0,.29.2.3.33.15,1.37.27,2.75.39,4.13q.3,3.15.58,6.3l.6,6.48c.27,2.81.53,5.63.8,8.45.21,2.35.42,4.71.65,7.06a1.13,1.13,0,0,1-.36,1l-5.9,5.87c-.46.46-.8.44-1.27,0-2-1.94-3.93-3.87-5.91-5.79a1.23,1.23,0,0,1-.43-1.11q.53-5.76,1-11.52c.26-3,.5-6,.76-9s.52-6,.78-9C29.81,21.07,29.89,20,30,18.92Z"/><path class="cls-1" d="M34.13,9.34h6.92c.8,0,1.09.52.69,1.2-1.06,1.79-2.15,3.55-3.16,5.37a1.47,1.47,0,0,1-1.51.85c-2.23-.06-4.46,0-6.69,0a.63.63,0,0,1-.66-.39c-1-1.92-2.12-3.82-3.19-5.72-.46-.83-.18-1.28.78-1.29Z"/></svg>