<svg id="Layer_1" data-name="Layer 1" xmlns="http://www.w3.org/2000/svg" viewBox="0 0 68.24 68.24"><defs><style>.cls-1{fill:#fff;}</style></defs><title>iconosMenu</title><path class="cls-1" d="M56,36.65a6.58,6.58,0,0,1,1.84,4.81,6.38,6.38,0,0,1-3.44,5.59,1.29,1.29,0,0,0-.75,1.05,7.24,7.24,0,0,1-4.51,5.82,1.55,1.55,0,0,0-.81.72,7.45,7.45,0,0,1-13.23,1.29c-.08-.13-.18-.26-.26-.39a20,20,0,0,1-1.67,1.92,7.38,7.38,0,0,1-11.8-2.6,1.71,1.71,0,0,0-1-1,7.22,7.22,0,0,1-4.47-5.76,1.48,1.48,0,0,0-.53-.91c-4-2.3-4.87-6.78-2-10.34.05-.06.09-.14.16-.24a6.1,6.1,0,0,1-.39-6.29,10.74,10.74,0,0,0,1.13-4.23,6.93,6.93,0,0,1,4.13-5.54c.32-.16.66-.28,1-.44A5,5,0,0,1,20,15.39a4.82,4.82,0,0,1,4-2.14,1.08,1.08,0,0,0,.81-.35,5.8,5.8,0,0,1,9.88-.35s0,0-.11-.07a19.27,19.27,0,0,1,3.21-2.14,5.63,5.63,0,0,1,6.88,2.34,1.21,1.21,0,0,0,.77.56c3.75.24,5.75,3.11,4.72,6.7a26.2,26.2,0,0,1,2.9,1.95,6.93,6.93,0,0,1,2.31,5.79,1.92,1.92,0,0,0,.22,1.18A6.77,6.77,0,0,1,56,36.65Zm-2.29,9a13.51,13.51,0,0,0,1.6-1.62A4.86,4.86,0,0,0,53,36.63c-.56-.23-1-.52-.77-1.16s.83-.57,1.35-.4a11.33,11.33,0,0,1,1.15.49,4.68,4.68,0,0,0,.52-3.85,4.74,4.74,0,0,0-3.78-3.53c-.56-.13-1-.36-.91-1s.59-.82,1.21-.62l2,.61a5.58,5.58,0,0,0-3.14-5.1c-.79-.4-1.54-.66-2.24.16a1.61,1.61,0,0,1-.49.3c-.49.26-1,.39-1.33-.17s0-1,.54-1.28a3.14,3.14,0,0,0,.44-.25,3.42,3.42,0,0,0,1.16-3.75c-.42-1.27-2-2.39-3-2.13a16.32,16.32,0,0,1-.2,1.76.71.71,0,0,1-1.2.44,1.71,1.71,0,0,1-.3-1.12,4.23,4.23,0,0,0-3.8-4.43,4.15,4.15,0,0,0-4.45,4.09c0,1.29,0,2.58,0,3.87,0,.6-.23,1.06-.8,1.07S34,20.2,34,19.57c0-1.32,0-2.64,0-4a4.12,4.12,0,1,0-8.2.69c.06.51-.09.92-.63,1a.71.71,0,0,1-.94-.68c-.07-.57-.12-1.15-.18-1.72a3.15,3.15,0,0,0-3.19,3.34,3.17,3.17,0,0,0,1.82,2.9c.54.29.76.71.45,1.24s-.79.44-1.25.18-.69-.48-1.05-.69a1.07,1.07,0,0,0-.58-.2,5.53,5.53,0,0,0-4.3,5.49,15.59,15.59,0,0,1,2.22-.63,1.09,1.09,0,0,1,.91.58c.07.26-.28.69-.53.95s-.48.12-.72.2C14,29.39,13.49,33.7,15,35.51c.43-.16.85-.36,1.3-.5s1-.06,1.15.52a.8.8,0,0,1-.62,1,4.23,4.23,0,0,0-.69.3,4.93,4.93,0,0,0-.22,8.71,17.43,17.43,0,0,1,.94-2.18,1.07,1.07,0,0,1,.95-.34c.27.17.38.65.48,1,0,.14-.15.35-.23.52a5.72,5.72,0,0,0,1.41,6.79,14.68,14.68,0,0,0,1.38,1c0-.53-.1-.89,0-1.13a4,4,0,0,1,.76-.85,10.07,10.07,0,0,1,.85.88c.07.1,0,.33,0,.49a5.81,5.81,0,0,0,4.88,6,5.68,5.68,0,0,0,6.44-4.46A21.38,21.38,0,0,0,34,49.66c0-.57.3-1,.83-1a.83.83,0,0,1,.84,1v2.43a5.76,5.76,0,1,0,11.49-.68c0-.6.22-1,.83-1s.83.4.82,1a7.32,7.32,0,0,0,0,.81l.21.17A14.81,14.81,0,0,0,51,50.44a5.48,5.48,0,0,0,.49-6.08c-.27-.55-.31-1,.32-1.34s.94.13,1.16.63S53.42,44.88,53.73,45.69Z"/><path class="cls-1" d="M44.06,34.12l-2.94-2.71a1.23,1.23,0,0,1-.19-1.91c.61-.68,1.3-.49,1.89.08,1.16,1.13,2.3,2.28,3.44,3.43a1.33,1.33,0,0,1,0,2.12c-1.15,1.14-2.27,2.31-3.43,3.44a1.25,1.25,0,0,1-1.92.1c-.63-.65-.42-1.33.2-1.89Z"/><path class="cls-1" d="M27,34.13a29.3,29.3,0,0,1,2.91,2.74,1.84,1.84,0,0,1,.16,1.73c-.46.72-1.27.56-1.87,0-1.16-1.13-2.28-2.29-3.43-3.43a1.33,1.33,0,0,1,0-2.12q1.69-1.73,3.43-3.43c.58-.57,1.26-.79,1.89-.13A1.23,1.23,0,0,1,30,31.38Z"/><path class="cls-1" d="M38.14,28.84c-.42,1.59-.75,2.85-1.07,4.12-.52,2-1,4.09-1.53,6.15-.21.89-.7,1.4-1.62,1.13s-1-.88-.78-1.8c.82-3.06,1.55-6.14,2.3-9.22.19-.77.51-1.46,1.41-1.26C37.36,28.07,37.78,28.58,38.14,28.84Z"/></svg>