<svg id="Layer_1" data-name="Layer 1" xmlns="http://www.w3.org/2000/svg" viewBox="0 0 68.24 68.24"><defs><style>.cls-1{fill:#fff;}</style></defs><title>iconosMenu</title><path class="cls-1" d="M15.88,47.05c.08-.06.17-.11.25-.18l7-7a1.06,1.06,0,0,1,.64-.32,5.48,5.48,0,0,0,3.42-1.9,3.18,3.18,0,0,0,.76-1.82.91.91,0,0,1,.31-.64c.21-.19.39-.4.61-.62.54.33,1.07.65,1.59,1,.2.14.3.11.46-.05q6.37-6.41,12.77-12.79a1.68,1.68,0,0,0,.32-.57,2.62,2.62,0,0,0,.18-.72,1.61,1.61,0,0,1,.87-1.25c1.25-.84,2.46-1.71,3.69-2.57l.17-.11,1.37,1.37L48.11,22c-.26.38-.54.76-.79,1.14a.68.68,0,0,1-.53.37A4.32,4.32,0,0,0,44.11,25c-3.92,4-7.87,7.9-11.82,11.83a.36.36,0,0,0,0,.54c.33.49.64,1,1,1.57l-.85.78a.34.34,0,0,1-.2.08,4,4,0,0,0-3.31,2.33,5.49,5.49,0,0,0-.67,2,1,1,0,0,1-.23.44l-7.12,7.14a1.77,1.77,0,0,0-.12.17h-.52s-.05,0-.08,0a5.28,5.28,0,0,1-3-1.79,5.4,5.4,0,0,1-1.26-2.5Z"/><path class="cls-1" d="M52.36,44.47l-.26.35-2.55-1.46c-.65-.37-1.31-.74-1.95-1.12a.43.43,0,0,0-.53,0,5.46,5.46,0,0,0-2.67,4.89.49.49,0,0,0,.22.33c1.41.82,2.82,1.62,4.23,2.42l.31.19c-.14.27-.26.54-.41.8a.27.27,0,0,1-.21.1,15.17,15.17,0,0,1-4.78-.66,4.79,4.79,0,0,1-3.36-4.25,10,10,0,0,1-.12-1.54,2,2,0,0,0-.42-1.36c-.84-1-1.67-2.08-2.57-3.06S35.25,38,34.23,37c-.11-.1-.21-.21-.3-.31L37.6,33c.35.36.7.76,1.09,1.12q2,1.83,4,3.63a6.09,6.09,0,0,0,.71.51,2.34,2.34,0,0,0,1.36.43,8.18,8.18,0,0,1,4.51,1.25,7.85,7.85,0,0,1,3,4.05,2.44,2.44,0,0,0,.14.28Z"/><path class="cls-1" d="M21.76,16.33c.55.06,1.1.09,1.63.2a15,15,0,0,1,2.33.61,4.64,4.64,0,0,1,3,4c.08.58.07,1.18.14,1.77a2.09,2.09,0,0,0,.25.91c.7.94,1.4,1.89,2.18,2.76,1.05,1.18,2.18,2.29,3.28,3.43l.16.17-3.64,3.63c-.71-.69-1.42-1.44-2.19-2.12-1-.89-2-1.73-3-2.57a2.54,2.54,0,0,0-1.62-.52,7.6,7.6,0,0,1-5.16-1.88,8.29,8.29,0,0,1-2.25-3.67c-.05-.16.07-.37.13-.6l1.21.69,3.37,1.93a.41.41,0,0,0,.49,0,5.49,5.49,0,0,0,2.7-4.91.5.5,0,0,0-.23-.33l-4.23-2.42L20,17.24l.41-.91Z"/></svg>