<svg id="Layer_1" data-name="Layer 1" xmlns="http://www.w3.org/2000/svg" viewBox="0 0 68.24 68.24"><defs><style>.cls-1{fill:#fff;}</style></defs><title>iconosMenu</title><path class="cls-1" d="M50.4,26.16c-.44-.14-.79-.26-1.14-.36a21.32,21.32,0,0,0-16.53,1.72,14,14,0,0,0-5.82,5.68c-2.26,4.28-1.83,8.39,1,12.29a13.89,13.89,0,0,0,2.95,2.93l.28.22-.26,0A25.94,25.94,0,0,1,22,47.11a.59.59,0,0,0-.61.06c-2.08,1.38-4.17,2.74-6.25,4.1l-.4.25c.06-.32.11-.56.15-.8.44-2.11.87-4.23,1.32-6.34a.48.48,0,0,0-.21-.55A15.34,15.34,0,0,1,10.74,37a12.49,12.49,0,0,1,1.42-11.64,17.88,17.88,0,0,1,7.12-6.18,25.1,25.1,0,0,1,10.19-2.69,26,26,0,0,1,12.44,2.27,18.76,18.76,0,0,1,7.94,6.52C50,25.54,50.19,25.81,50.4,26.16Z"/><path class="cls-1" d="M53.57,51.8a4,4,0,0,1-.46-.18l-4-2.44a.68.68,0,0,0-.59-.08,19.06,19.06,0,0,1-13.64-1.24,12.44,12.44,0,0,1-5.09-4.36A8.71,8.71,0,0,1,30.21,33a13.75,13.75,0,0,1,6.58-4.54,19.15,19.15,0,0,1,14.76.76,12.44,12.44,0,0,1,5.31,4.54,8.72,8.72,0,0,1-.59,10.46A12.93,12.93,0,0,1,53.12,47a.35.35,0,0,0-.19.42c.2,1.29.39,2.59.58,3.89C53.53,51.45,53.54,51.57,53.57,51.8Z"/></svg>