<svg id="Capa_1" data-name="Capa 1" xmlns="http://www.w3.org/2000/svg" viewBox="0 0 568.39 497.7"><defs><style>.cls-1{fill:#fff;}</style></defs><title>iconos_habilidades</title><path class="cls-1" d="M197.3,109.93c14.74-1.6,28.81-3.35,42.93-4.62,24-2.17,37.44,8.83,40.64,33,1.95,14.78,3.85,29.56,5.89,45.23,32.57-14.55,61.35-11.13,83.83,17.58,15.35,19.61,15.86,48.2,2.72,69.31-15,24-38.42,33.08-73,27.51,1.74,15,3.07,29.81,5.23,44.46,3.44,23.24-8.61,39.78-31.71,42.75-14.36,1.84-28.7,3.72-43.33,5.62,16.56,39.69,12.89,67.56-11.18,89.29a67.55,67.55,0,0,1-77.75,9.52c-29-15.59-38.71-40.91-32-84.62-14,1.68-27.74,3-41.41,5.06-23.26,3.5-40.26-9.83-42.94-33C18.33,317.66,11,258.42,3.87,199.15c-1.3-10.87-2.65-21.74-3.71-32.64-1.82-18.63,12.54-34.7,32.63-36.89,13.82-1.5,27.62-3.15,42.37-4.85-17.09-36.13-14-68.31,19-93.18,21.74-16.43,52.5-16.85,74.9-1.81C197.52,48.92,205.69,76.08,197.3,109.93ZM135.37,39.14c-22.78.17-40.07,11.59-47,30.1-7.49,20-3.22,37.59,11.74,53,3,3.11,6.18,8.92,5.19,12.29s-6.88,6.74-11,7.38c-19.66,3-39.46,5.11-59.21,7.54-10.83,1.33-16.23,7.8-15,18.16Q32.45,270.34,44.93,373.08c1.84,15.13,7.63,19.22,22.68,17.17,19-2.59,38.12-5.21,57.26-7,4.22-.39,10.82,1.64,12.57,4.7s-.87,8.91-2.19,13.36c-3,10.29-9.15,20.48-9.14,30.7,0,22.85,16.46,40.47,38.1,44.73s42.53-5.81,52.38-25.32c10-19.77,5.25-41.95-11.51-58.06-3.29-3.17-6.71-9.55-5.6-13s7.62-6.56,12.16-7.26c19.66-3,39.5-4.79,59.2-7.59,13-1.84,16.92-7.74,15.27-20.56-2.47-19.08-5.28-38.14-7-57.29-.47-5.27.94-12.38,4.35-15.73,2.08-2,10.26.33,14.62,2.7,19.91,10.81,44,5.91,56.7-12.25A42.41,42.41,0,0,0,347.45,205c-17-14.39-41.25-13.06-58.09,2.38-3.57,3.28-10.12,6.29-14.12,5.18-3.16-.88-5.76-8.07-6.46-12.78-3-20-4.91-40.17-7.68-60.2-1.72-12.41-7.34-16.08-19.84-14.61-20.1,2.35-40.19,4.81-60.34,6.68-8.55.8-13.62-4.62-11.67-11.61.86-3.08,3.17-5.74,4.8-8.61,9.09-16,9.48-32.36.34-48.3S150.84,39.37,135.37,39.14Z"/><path class="cls-1" d="M459.66,405.77c6,43.63-4,69.37-33,84.34a68.28,68.28,0,0,1-78.44-11.31c-23.13-22.29-26.4-50.64-9.59-87.81-5-.78-10.34-.47-14.4-2.58-3.78-2-6.21-6.52-9.24-9.93,3.64-3.17,7.32-9.06,10.92-9,12.2.18,24.45,2,36.5,4.23,3.05.56,7.28,4.73,7.6,7.61.38,3.49-1.85,8.45-4.62,10.9C351.64,404.39,345.06,419,348,437.35c3.13,19.68,17.57,35.24,36.15,39.26,20,4.32,39.35-3.16,50.61-19.53a47.68,47.68,0,0,0,.1-54.23c-1.66-2.45-3.78-4.85-4.56-7.59-2.27-8,3.2-13.3,13-12.23,19.12,2.07,38.23,4.37,57.28,7,16.5,2.31,21.62-1.36,23.63-18.13q12.18-101.79,24.38-203.56c1.37-11.48-3.4-17.62-14.83-19L326.21,124.7c-10.46-1.24-16.1,2.92-18.2,13.42-.59,2.92-1,5.88-1.42,8.84-.88,6.47-5.08,10.27-10.88,8.34-3.63-1.21-8.46-6.44-8.43-9.82.23-28.91,17.69-43.39,42.13-40.27,49,6.26,98.14,11.81,147.23,17.64,18.78,2.23,37.53,4.73,56.35,6.54,25.11,2.43,37.86,16.93,35,41.87Q556.07,275.57,543.5,379.8C541,400.72,523.1,413.22,502,410.17c-13.46-1.94-27-3.38-40.48-5C460.91,405.11,460.27,405.56,459.66,405.77Z"/><path class="cls-1" d="M486.07,346.84c1.86-14.3,3.77-28,5.35-41.71.85-7.37,4.17-12.45,12-11,7.16,1.33,8.42,7,7.44,13.88-1.95,13.77-3.37,27.62-4.87,41.45-1.33,12.27-7.46,18.42-19.47,17.35-19.46-1.74-38.85-4.26-58.24-6.68-6.16-.77-10.91-3.7-10.21-11,.78-8,6.37-9.16,13-8.41l45.42,5.16C479.34,346.25,482.23,346.48,486.07,346.84Z"/><path class="cls-1" d="M505.16,187.19c-16.67-2-32.09-4.08-47.55-5.74-7.13-.77-12.58-3-11.79-11.34.82-8.74,7.3-9.22,14-8.46,16.79,1.9,33.58,3.83,50.32,6,9.61,1.27,16.2,8.56,15.35,17.62-1.26,13.51-3.39,26.94-5.06,40.42-.78,6.31-4.29,9.92-10.56,9.3-6.94-.68-9.32-5.62-8.65-12.11C502.41,211.45,503.74,200,505.16,187.19Z"/><path class="cls-1" d="M292.41,37.25c0,8.29-.1,16.59,0,24.89.11,6.91-2.36,12.18-9.78,12.33s-10.16-4.68-10.08-11.85c.19-16.92.13-33.85,0-50.78,0-7,2.41-12,10-11.83s9.8,5.57,9.76,12.34C292.36,20.65,292.4,29,292.41,37.25Z"/><path class="cls-1" d="M311.11,79.53c1.31-3.8,1.69-6.16,2.83-8.06,8.21-13.58,16.47-27.14,24.95-40.55,3.26-5.15,9-7.66,13.36-3.34,2.87,2.81,4.8,10.24,3.09,13.43a456.38,456.38,0,0,1-25.93,42.21c-1.81,2.65-7.59,4.17-11.09,3.58C315.47,86.31,313.29,81.88,311.11,79.53Z"/><path class="cls-1" d="M253,80.18c-1.3,1.48-3.3,5.7-6.27,6.56s-8.92-.28-10.46-2.6C226.4,69.29,217,54.06,208.41,38.45c-1.27-2.31,1.27-8.52,3.89-10.62,2.2-1.76,9.26-1.62,10.45.16,10.45,15.61,20.08,31.77,29.91,47.8C253,76.29,252.79,77.09,253,80.18Z"/><path class="cls-1" d="M61.5,185.46c1.45,13.52,2.71,25.36,4,37.2.7,6.46-1.31,11.49-8.32,12.27s-10.16-3.87-11-10.15c-1.74-13.46-3.65-26.9-4.75-40.41-.84-10.16,5.11-17.13,15.33-18.51,17.38-2.34,34.82-4.23,52.24-6.25,7.07-.83,13.26.92,13.68,9,.4,7.94-5.45,10.15-12.54,10.89C94.09,181.21,78.1,183.4,61.5,185.46Z"/><path class="cls-1" d="M81.15,349.28l45-5.22c3.61-.41,7.22-.85,10.84-1.19,6.64-.63,12.18,2.19,11.39,8.85-.47,3.9-5.53,9.78-9.23,10.36C119.56,365.2,99.79,367.26,80,369c-11.19,1-17.27-4.74-18.72-15.89-1.37-10.49-2.54-21-3.86-31.5-.9-7.21,1.16-13.23,9-13.91,7.16-.62,10.18,4.51,10.87,11.42C78.25,328.87,79.75,338.6,81.15,349.28Z"/><path class="cls-1" d="M198.4,355.34c-6.85.64-13.47.17-14.42-8.27-1-8.95,5.9-10.84,12.87-11.7,16.45-2,32.91-4,49.37-5.88,6.3-.73,11.52.83,12.58,8,1.09,7.42-2.75,10.87-10.06,11.68C231.94,351,215.18,353.26,198.4,355.34Z"/></svg>